# xmcd
# Copyright (C) 1995-1998 Ti Kan
#
# Track frame offsets:
#       150
#       13141
#       27247
#
# Disc length: 438 seconds
#
# Revision: 0
# Processed by: cddbd v1.5.2PL0 Copyright (c) Steve Scherf et al.
# Submitted via: CD-Import v1.0
#
DISCID=1b01b403
DTITLE=Highnoon - 
DYEAR=1900
DGENRE=
TTITLE0=Kulinarium Gute Saucenbinder
TTITLE1=Kulinarium Welches Kraut Brqaucht Man Für Was
TTITLE2=Kulinarium Kann Man Avocado Auch Warm Esssen
EXTD=
EXTT0=
EXTT1=
EXTT2=
PLAYORDER=
